<svg width="21" height="19" viewBox="0 0 21 19" fill="none" xmlns="http://www.w3.org/2000/svg">
<path d="M6.76598 12.5766H6.76694C6.76775 12.5766 6.76855 12.5764 6.76935 12.5764H17.9238C18.1984 12.5764 18.4399 12.3942 18.5154 12.1302L20.9763 3.51693C21.0293 3.33124 20.9922 3.13161 20.876 2.97748C20.7597 2.82335 20.5778 2.73267 20.3848 2.73267H5.3471L4.9073 0.753502C4.84466 0.472 4.59504 0.271729 4.30665 0.271729H0.615242C0.275421 0.271729 7.62939e-06 0.547142 7.62939e-06 0.886963C7.62939e-06 1.22678 0.275421 1.5022 0.615242 1.5022H3.81318C3.89104 1.85291 5.91779 10.9734 6.03443 11.4982C5.38058 11.7824 4.92188 12.4343 4.92188 13.1916C4.92188 14.2093 5.74989 15.0374 6.76759 15.0374H17.9238C18.2637 15.0374 18.5391 14.7619 18.5391 14.4221C18.5391 14.0823 18.2637 13.8069 17.9238 13.8069H6.76759C6.42841 13.8069 6.15235 13.5308 6.15235 13.1916C6.15235 12.853 6.42744 12.5774 6.76598 12.5766ZM19.5691 3.96313L17.4597 11.3459H7.26105L5.62043 3.96313H19.5691Z" fill="black"/>
<path d="M6.15234 16.8828C6.15234 17.9005 6.98035 18.7285 7.99805 18.7285C9.01575 18.7285 9.84375 17.9005 9.84375 16.8828C9.84375 15.8651 9.01575 15.0371 7.99805 15.0371C6.98035 15.0371 6.15234 15.8651 6.15234 16.8828ZM7.99805 16.2676C8.33723 16.2676 8.61328 16.5436 8.61328 16.8828C8.61328 17.222 8.33723 17.498 7.99805 17.498C7.65887 17.498 7.38281 17.222 7.38281 16.8828C7.38281 16.5436 7.65887 16.2676 7.99805 16.2676Z" fill="black"/>
<path d="M14.8476 16.8828C14.8476 17.9005 15.6756 18.7285 16.6933 18.7285C17.711 18.7285 18.539 17.9005 18.539 16.8828C18.539 15.8651 17.711 15.0371 16.6933 15.0371C15.6756 15.0371 14.8476 15.8651 14.8476 16.8828ZM16.6933 16.2676C17.0325 16.2676 17.3086 16.5436 17.3086 16.8828C17.3086 17.222 17.0325 17.498 16.6933 17.498C16.3541 17.498 16.0781 17.222 16.0781 16.8828C16.0781 16.5436 16.3541 16.2676 16.6933 16.2676Z" fill="black"/>
</svg>
