<svg width="32" height="18" viewBox="0 0 32 18" fill="none" xmlns="http://www.w3.org/2000/svg">
<path d="M2.12496 9L3.76246 10.6375C10.5125 17.3875 21.4937 17.3875 28.2437 10.6375L29.875 9L28.2375 7.3625C21.4875 0.6125 10.5062 0.6125 3.75621 7.3625L2.12496 9ZM16 16.8875C11.2625 16.8875 6.52496 15.0813 2.91871 11.475L0.862463 9.41875C0.631213 9.1875 0.631213 8.8125 0.862463 8.575L2.91871 6.51875C10.1312 -0.69375 21.8687 -0.69375 29.0812 6.51875L31.1375 8.575C31.3687 8.80625 31.3687 9.18125 31.1375 9.41875L29.0812 11.475C25.475 15.0813 20.7375 16.8875 16 16.8875Z" fill="black"/>
<path d="M2.81307 6.41303C10.0841 -0.858053 21.916 -0.858053 29.1871 6.41303L31.2437 8.46869C31.5343 8.75929 31.5319 9.22843 31.2447 9.52338L29.1871 11.581C25.5515 15.2165 20.7751 17.037 15.9996 17.037C11.2242 17.0369 6.44851 15.2163 2.81307 11.581L0.756428 9.52435C0.466027 9.23374 0.468328 8.76553 0.755451 8.47064L0.756428 8.46869L2.81307 6.41303ZM28.9752 6.62494C21.8213 -0.528982 10.1789 -0.528982 3.02498 6.62494L0.969318 8.67865C0.794072 8.85863 0.796633 9.14052 0.968342 9.31244L3.02498 11.3691C6.6018 14.9458 11.3004 16.7371 15.9996 16.7372C20.699 16.7372 25.3982 14.946 28.9752 11.3691L31.0318 9.31244C31.2054 9.13232 31.2032 8.85196 31.0318 8.6806L28.9752 6.62494ZM3.97225 6.94232C10.8037 0.449434 21.6411 0.554535 28.3433 7.25678L29.981 8.89349L30.0865 8.99994L29.981 9.10541L28.3502 10.7431C21.5416 17.5517 10.4654 17.5517 3.65682 10.7431L2.01912 9.10639L2.12459 8.99994L2.01912 8.89447L3.64998 7.25678L3.97225 6.94232ZM28.1314 7.46869C21.4401 0.777333 10.5533 0.776487 3.8619 7.46771L3.86287 7.46869L2.33651 8.99896L3.86873 10.5312C10.5601 17.2226 21.4459 17.2225 28.1373 10.5312L29.6627 8.99994L28.1314 7.46869Z" fill="black"/>
<path d="M16 4.46875C13.5 4.46875 11.4687 6.5 11.4687 9C11.4687 11.5 13.5 13.5312 16 13.5312C18.5 13.5312 20.5312 11.5 20.5312 9C20.5312 6.5 18.5 4.46875 16 4.46875ZM16 14.7188C12.8437 14.7188 10.2812 12.15 10.2812 9C10.2812 5.84375 12.85 3.28125 16 3.28125C19.15 3.28125 21.7187 5.85 21.7187 9C21.7187 12.1562 19.1562 14.7188 16 14.7188Z" fill="black"/>
<path d="M21.5684 9C21.5684 5.93284 19.0672 3.43164 16 3.43164C12.9327 3.43164 10.4316 5.9267 10.4316 9C10.4316 12.0673 12.9267 14.5684 16 14.5684C19.0734 14.5684 21.5684 12.0734 21.5684 9ZM20.3809 9C20.3809 6.58284 18.4172 4.61914 16 4.61914C13.5828 4.61914 11.6191 6.58284 11.6191 9C11.6191 11.4172 13.5828 13.3809 16 13.3809C18.4172 13.3809 20.3809 11.4172 20.3809 9ZM20.6816 9C20.6816 11.5828 18.5828 13.6816 16 13.6816C13.4172 13.6816 11.3184 11.5828 11.3184 9C11.3184 6.41716 13.4172 4.31836 16 4.31836C18.5828 4.31836 20.6816 6.41716 20.6816 9ZM21.8691 9C21.8691 12.2391 19.2391 14.8691 16 14.8691C12.7608 14.8691 10.1309 12.2327 10.1309 9C10.1309 5.7608 12.7673 3.13086 16 3.13086C19.2328 3.13086 21.8691 5.76716 21.8691 9Z" fill="black"/>
</svg>
