<svg width="25" height="23" viewBox="0 0 25 23" fill="none" xmlns="http://www.w3.org/2000/svg">
<path d="M11.3428 22.1291C11.6538 22.44 12.0718 22.6134 12.5102 22.6134C12.9435 22.6134 13.3717 22.4349 13.6776 22.1291L22.8385 12.9682C24.2302 11.5764 24.9949 9.72591 25 7.76323C25 5.79545 24.2353 3.94492 22.8436 2.5532C21.4519 1.16147 19.6064 0.396792 17.6387 0.396792C15.7066 0.396792 13.8866 1.13599 12.5051 2.48183C11.1185 1.13089 9.29343 0.386597 7.35624 0.386597C5.39356 0.386597 3.54812 1.15128 2.1564 2.5379C0.764682 3.92962 0 5.78015 0 7.74794C0 9.71062 0.76978 11.5611 2.1615 12.9529L11.3428 22.1291ZM3.04343 3.42493C4.19555 2.27281 5.73002 1.63558 7.36134 1.63558C8.99266 1.63558 10.5322 2.27281 11.6894 3.43003L12.0667 3.80727C12.1839 3.92453 12.342 3.9908 12.5102 3.9908C12.6733 3.9908 12.8365 3.92453 12.9537 3.80727L13.3208 3.44023C14.478 2.28301 16.0124 1.64577 17.6489 1.64577C19.2802 1.64577 20.8146 2.28301 21.9668 3.43513C23.124 4.59235 23.7561 6.12681 23.7561 7.75813C23.7561 9.38945 23.1189 10.9239 21.9617 12.0811L12.7957 21.2471C12.6478 21.395 12.3777 21.395 12.2247 21.2471L3.04853 12.0709C1.89131 10.9137 1.25408 9.37926 1.25408 7.74794C1.25408 6.11661 1.89131 4.58215 3.04343 3.42493Z" fill="black"/>
<path d="M1.10449 7.74792C1.10449 6.07669 1.75757 4.50436 2.9375 3.31921C4.11769 2.13902 5.69015 1.48523 7.36133 1.48523C9.03247 1.48523 10.6106 2.13877 11.7959 3.3241L12.1729 3.70105C12.262 3.79021 12.3817 3.84059 12.5098 3.8407C12.6336 3.8407 12.7589 3.78985 12.8477 3.70105L13.2148 3.33386C14.4 2.14883 15.9724 1.49608 17.6484 1.49597C19.3196 1.49597 20.893 2.14878 22.0732 3.32898C23.2585 4.51431 23.9061 6.08698 23.9062 7.75769C23.9062 9.42897 23.2526 11.0022 22.0674 12.1874L12.9014 21.3534C12.6939 21.5605 12.3301 21.5583 12.1201 21.3553L2.94238 12.1766C1.7573 10.9914 1.10449 9.41909 1.10449 7.74792ZM-0.150391 7.74792C-0.150388 5.74046 0.630868 3.85143 2.05078 2.43152C3.4705 1.0171 5.35402 0.236206 7.35645 0.236206C9.28479 0.236257 11.1037 0.960983 12.5049 2.27625C13.9013 0.965882 15.7155 0.246948 17.6387 0.246948C19.6462 0.246951 21.5294 1.02744 22.9492 2.44714C24.3691 3.86706 25.1504 5.75608 25.1504 7.76355L25.1396 8.13757C25.0444 9.99998 24.2755 11.743 22.9443 13.0741L13.7832 22.2352C13.4494 22.5689 12.9829 22.7635 12.5098 22.7635C12.0316 22.7634 11.5753 22.5742 11.2363 22.2352L2.05566 13.0594L2.26758 12.8466L11.4492 22.0233C11.732 22.3059 12.1116 22.4636 12.5098 22.4637C12.903 22.4637 13.2934 22.301 13.5713 22.0233L22.7324 12.8622C24.0958 11.4988 24.8444 9.68651 24.8496 7.76355L24.8408 7.4032C24.7536 5.61039 24.0156 3.93737 22.7373 2.65906C21.3737 1.29559 19.5665 0.546755 17.6387 0.546753C15.7456 0.546753 13.9628 1.27122 12.6094 2.58972L12.5049 2.48132L12.4004 2.58972C11.0418 1.26605 9.25435 0.53704 7.35645 0.536987C5.43363 0.536987 3.62639 1.28575 2.2627 2.64441C0.89924 4.00792 0.150393 5.81989 0.150391 7.74792C0.150391 9.67054 0.903899 11.4828 2.26758 12.8466L2.05566 13.0594C0.63605 11.6398 -0.150391 9.75057 -0.150391 7.74792ZM12.6094 2.58972L12.5049 2.69128L12.4004 2.58972L12.5049 2.48132L12.6094 2.58972ZM1.4043 7.74792C1.4043 9.33919 2.02523 10.8355 3.1543 11.9647L12.3291 21.1395L12.3682 21.1698C12.4672 21.2301 12.6121 21.2185 12.6895 21.1415L21.8555 11.9755C22.9847 10.8463 23.6064 9.34906 23.6064 7.75769C23.6063 6.16617 22.9892 4.66977 21.8604 3.54089C20.7363 2.41705 19.2397 1.79578 17.6484 1.79578C16.0521 1.79589 14.5558 2.41769 13.4268 3.54675L13.0596 3.91296C12.9139 4.05867 12.7122 4.1405 12.5098 4.1405C12.3017 4.14039 12.1061 4.05811 11.9609 3.91296L11.583 3.53601C10.4539 2.40704 8.95272 1.78601 7.36133 1.78601C5.76987 1.78601 4.27346 2.40708 3.14941 3.53113C2.02532 4.66037 1.4043 6.15669 1.4043 7.74792Z" fill="black"/>
</svg>
