<svg width="19" height="18" viewBox="0 0 19 18" fill="none" xmlns="http://www.w3.org/2000/svg">
<path fill-rule="evenodd" clip-rule="evenodd" d="M0 2.11765C0 0.948106 0.948099 0 2.11764 0C2.67927 0 3.2179 0.223109 3.61504 0.620246C4.01217 1.01738 4.23528 1.55602 4.23528 2.11765C4.23528 3.2872 3.28718 4.23531 2.11764 4.23531C0.948099 4.23531 0 3.2872 0 2.11765ZM18.5294 11.0223C18.5659 8.72986 17.002 6.72097 14.7706 6.19408C13.2753 5.87209 11.7166 6.29432 10.5883 7.32702V6.88232C10.5883 6.58993 10.3512 6.3529 10.0589 6.3529H7.41181C7.11942 6.3529 6.8824 6.58993 6.8824 6.88232V17.4706C6.8824 17.763 7.11942 18 7.41181 18H10.0589C10.3512 18 10.5883 17.763 10.5883 17.4706V11.4988C10.5621 10.4354 11.3032 9.5068 12.3459 9.29644C12.9667 9.18927 13.6031 9.36411 14.082 9.77345C14.5609 10.1828 14.8327 10.7841 14.8235 11.4141V17.4706C14.8235 17.763 15.0606 18 15.353 18H18C18.2924 18 18.5294 17.763 18.5294 17.4706V11.0223ZM4.23526 6.88231V17.4706C4.23526 17.763 3.99824 18 3.70585 18H1.0588C0.766417 18 0.529393 17.763 0.529393 17.4706V6.88231C0.529393 6.58993 0.766417 6.3529 1.0588 6.3529H3.70585C3.99824 6.3529 4.23526 6.58993 4.23526 6.88231Z" fill="#707070"/>
</svg>
