<svg width="30" height="30" viewBox="0 0 30 30" fill="none" xmlns="http://www.w3.org/2000/svg">
<path d="M30 13.9286V16.0714C30 16.6632 29.5203 17.1429 28.9286 17.1429H17.1429V28.9286C17.1429 29.5203 16.6632 30 16.0714 30H13.9286C13.3368 30 12.8571 29.5203 12.8571 28.9286V17.1429H1.07143C0.479695 17.1429 0 16.6632 0 16.0714V13.9286C0 13.3368 0.479695 12.8571 1.07143 12.8571H12.8571V1.07143C12.8571 0.479695 13.3368 0 13.9286 0H16.0714C16.6632 0 17.1429 0.479695 17.1429 1.07143V12.8571H28.9286C29.5203 12.8571 30 13.3368 30 13.9286Z" fill="white"/>
</svg>
