<svg width="18" height="18" viewBox="0 0 18 18" fill="none" xmlns="http://www.w3.org/2000/svg">
<path d="M9.00015 0.386475C9.38413 0.386475 9.7294 0.614321 9.88101 0.967529L11.9347 5.77515L17.13 6.24683C17.511 6.2813 17.8348 6.53958 17.9533 6.90405C18.0718 7.26928 17.9618 7.66796 17.674 7.92065L13.7462 11.365L14.9045 16.4656C14.9892 16.8406 14.8436 17.2289 14.5324 17.4539C14.2219 17.6788 13.8083 17.6971 13.4796 17.5007L9.00015 14.821L4.51969 17.5007C4.36836 17.5912 4.19874 17.6354 4.02945 17.6355L3.88199 17.6248C3.73558 17.602 3.59346 17.5451 3.46793 17.4539C3.15676 17.2289 3.01113 16.8406 3.09586 16.4656L4.25406 11.365L0.326327 7.92065C0.0383538 7.66797 -0.0714404 7.26844 0.0470298 6.90405C0.166233 6.54026 0.489315 6.28198 0.870272 6.24683L6.06656 5.77515L8.12027 0.967529C8.27093 0.61435 8.61621 0.386484 9.00015 0.386475ZM6.75211 6.71753L1.05973 7.23315L5.36148 11.0056L4.09293 16.5896L9.00015 13.656L13.9064 16.5906L12.6388 11.0056L16.9396 7.23315L11.2492 6.71753L9.00015 1.4519L6.75211 6.71753Z" fill="black"/>
</svg>
