<svg width="0" height="0" class="hidden">
  <symbol fill="currentColor" xmlns="http://www.w3.org/2000/svg" viewBox="0 0 25 9" id="arrow-icon">
    <path d="M0 4.99124V3.74124C0 3.39606 0.279908 3.11624 0.625193 3.11624H20.0062V0.616238C20.0097 0.366191 20.1619 0.142308 20.3933 0.0470931C20.6246 -0.0481216 20.8904 0.00366329 21.069 0.178738L24.8201 3.92874C25.06 4.17601 25.06 4.56897 24.8201 4.81624L21.069 8.56624C20.8887 8.74287 20.6199 8.79382 20.3875 8.69542C20.1551 8.59702 20.0047 8.36856 20.0062 8.11624V5.61624H0.625193C0.279908 5.61624 0 5.33642 0 4.99124Z" fill="currentColor"></path>
  </symbol>
  <symbol fill="currentColor" xmlns="http://www.w3.org/2000/svg" viewBox="0 0 21 19" id="cart-icon">
    <path d="M6.76598 12.5766H6.76694C6.76775 12.5766 6.76855 12.5764 6.76935 12.5764H17.9238C18.1984 12.5764 18.4399 12.3942 18.5154 12.1302L20.9763 3.51693C21.0293 3.33124 20.9922 3.13161 20.876 2.97748C20.7597 2.82335 20.5778 2.73267 20.3848 2.73267H5.3471L4.9073 0.753502C4.84466 0.472 4.59504 0.271729 4.30665 0.271729H0.615242C0.275421 0.271729 7.62939e-06 0.547142 7.62939e-06 0.886963C7.62939e-06 1.22678 0.275421 1.5022 0.615242 1.5022H3.81318C3.89104 1.85291 5.91779 10.9734 6.03443 11.4982C5.38058 11.7824 4.92188 12.4343 4.92188 13.1916C4.92188 14.2093 5.74989 15.0374 6.76759 15.0374H17.9238C18.2637 15.0374 18.5391 14.7619 18.5391 14.4221C18.5391 14.0823 18.2637 13.8069 17.9238 13.8069H6.76759C6.42841 13.8069 6.15235 13.5308 6.15235 13.1916C6.15235 12.853 6.42744 12.5774 6.76598 12.5766ZM19.5691 3.96313L17.4597 11.3459H7.26105L5.62043 3.96313H19.5691Z" fill="currentColor"></path>
    <path d="M6.15234 16.8828C6.15234 17.9005 6.98035 18.7285 7.99805 18.7285C9.01575 18.7285 9.84375 17.9005 9.84375 16.8828C9.84375 15.8651 9.01575 15.0371 7.99805 15.0371C6.98035 15.0371 6.15234 15.8651 6.15234 16.8828ZM7.99805 16.2676C8.33723 16.2676 8.61328 16.5436 8.61328 16.8828C8.61328 17.222 8.33723 17.498 7.99805 17.498C7.65887 17.498 7.38281 17.222 7.38281 16.8828C7.38281 16.5436 7.65887 16.2676 7.99805 16.2676Z" fill="currentColor"></path>
    <path d="M14.8476 16.8828C14.8476 17.9005 15.6756 18.7285 16.6933 18.7285C17.711 18.7285 18.539 17.9005 18.539 16.8828C18.539 15.8651 17.711 15.0371 16.6933 15.0371C15.6756 15.0371 14.8476 15.8651 14.8476 16.8828ZM16.6933 16.2676C17.0325 16.2676 17.3086 16.5436 17.3086 16.8828C17.3086 17.222 17.0325 17.498 16.6933 17.498C16.3541 17.498 16.0781 17.222 16.0781 16.8828C16.0781 16.5436 16.3541 16.2676 16.6933 16.2676Z" fill="currentColor"></path>
  </symbol>
  <symbol fill="currentColor" xmlns="http://www.w3.org/2000/svg" viewBox="0 0 14 14" id="cross-icon">
    <path d="M13.3467 1.53027L7.87695 7L13.3467 12.4697L12.2861 13.5303L6.81641 8.06055L1.53027 13.3467L0.469727 12.2861L5.75586 7L0.469727 1.71387L1.53027 0.65332L6.81641 5.93945L12.2861 0.469727L13.3467 1.53027Z" fill="currentColor"></path>
  </symbol>
  <symbol fill="currentColor" xmlns="http://www.w3.org/2000/svg" viewBox="0 0 32 18" id="eye-icon">
    <path d="M2.12496 9L3.76246 10.6375C10.5125 17.3875 21.4937 17.3875 28.2437 10.6375L29.875 9L28.2375 7.3625C21.4875 0.6125 10.5062 0.6125 3.75621 7.3625L2.12496 9ZM16 16.8875C11.2625 16.8875 6.52496 15.0813 2.91871 11.475L0.862463 9.41875C0.631213 9.1875 0.631213 8.8125 0.862463 8.575L2.91871 6.51875C10.1312 -0.69375 21.8687 -0.69375 29.0812 6.51875L31.1375 8.575C31.3687 8.80625 31.3687 9.18125 31.1375 9.41875L29.0812 11.475C25.475 15.0813 20.7375 16.8875 16 16.8875Z" fill="currentColor"></path>
    <path d="M2.81307 6.41303C10.0841 -0.858053 21.916 -0.858053 29.1871 6.41303L31.2437 8.46869C31.5343 8.75929 31.5319 9.22843 31.2447 9.52338L29.1871 11.581C25.5515 15.2165 20.7751 17.037 15.9996 17.037C11.2242 17.0369 6.44851 15.2163 2.81307 11.581L0.756428 9.52435C0.466027 9.23374 0.468328 8.76553 0.755451 8.47064L0.756428 8.46869L2.81307 6.41303ZM28.9752 6.62494C21.8213 -0.528982 10.1789 -0.528982 3.02498 6.62494L0.969318 8.67865C0.794072 8.85863 0.796633 9.14052 0.968342 9.31244L3.02498 11.3691C6.6018 14.9458 11.3004 16.7371 15.9996 16.7372C20.699 16.7372 25.3982 14.946 28.9752 11.3691L31.0318 9.31244C31.2054 9.13232 31.2032 8.85196 31.0318 8.6806L28.9752 6.62494ZM3.97225 6.94232C10.8037 0.449434 21.6411 0.554535 28.3433 7.25678L29.981 8.89349L30.0865 8.99994L29.981 9.10541L28.3502 10.7431C21.5416 17.5517 10.4654 17.5517 3.65682 10.7431L2.01912 9.10639L2.12459 8.99994L2.01912 8.89447L3.64998 7.25678L3.97225 6.94232ZM28.1314 7.46869C21.4401 0.777333 10.5533 0.776487 3.8619 7.46771L3.86287 7.46869L2.33651 8.99896L3.86873 10.5312C10.5601 17.2226 21.4459 17.2225 28.1373 10.5312L29.6627 8.99994L28.1314 7.46869Z" fill="currentColor"></path>
    <path d="M16 4.46875C13.5 4.46875 11.4687 6.5 11.4687 9C11.4687 11.5 13.5 13.5312 16 13.5312C18.5 13.5312 20.5312 11.5 20.5312 9C20.5312 6.5 18.5 4.46875 16 4.46875ZM16 14.7188C12.8437 14.7188 10.2812 12.15 10.2812 9C10.2812 5.84375 12.85 3.28125 16 3.28125C19.15 3.28125 21.7187 5.85 21.7187 9C21.7187 12.1562 19.1562 14.7188 16 14.7188Z" fill="currentColor"></path>
    <path d="M21.5684 9C21.5684 5.93284 19.0672 3.43164 16 3.43164C12.9327 3.43164 10.4316 5.9267 10.4316 9C10.4316 12.0673 12.9267 14.5684 16 14.5684C19.0734 14.5684 21.5684 12.0734 21.5684 9ZM20.3809 9C20.3809 6.58284 18.4172 4.61914 16 4.61914C13.5828 4.61914 11.6191 6.58284 11.6191 9C11.6191 11.4172 13.5828 13.3809 16 13.3809C18.4172 13.3809 20.3809 11.4172 20.3809 9ZM20.6816 9C20.6816 11.5828 18.5828 13.6816 16 13.6816C13.4172 13.6816 11.3184 11.5828 11.3184 9C11.3184 6.41716 13.4172 4.31836 16 4.31836C18.5828 4.31836 20.6816 6.41716 20.6816 9ZM21.8691 9C21.8691 12.2391 19.2391 14.8691 16 14.8691C12.7608 14.8691 10.1309 12.2327 10.1309 9C10.1309 5.7608 12.7673 3.13086 16 3.13086C19.2328 3.13086 21.8691 5.76716 21.8691 9Z" fill="currentColor"></path>
  </symbol>
  <symbol fill="currentColor" xmlns="http://www.w3.org/2000/svg" viewBox="0 0 10 18" id="facebook-icon">
    <path d="M9.5 3H6.5C5.94772 3 5.5 3.44772 5.5 4V7H9.5C9.61374 6.99748 9.7216 7.05039 9.78923 7.14188C9.85685 7.23336 9.87578 7.35201 9.84 7.46L9.1 9.66C9.03181 9.86192 8.84312 9.99842 8.63 10H5.5V17.5C5.5 17.7761 5.27614 18 5 18H2.5C2.22386 18 2 17.7761 2 17.5V10H0.5C0.223858 10 0 9.77614 0 9.5V7.5C0 7.22386 0.223858 7 0.5 7H2V4C2 1.79086 3.79086 0 6 0H9.5C9.77614 0 10 0.223858 10 0.5V2.5C10 2.77614 9.77614 3 9.5 3Z" fill="currentColor"></path>
  </symbol>
  <symbol fill="currentColor" xmlns="http://www.w3.org/2000/svg" viewBox="0 0 18 18" id="insta-icon">
    <path fill-rule="evenodd" clip-rule="evenodd" d="M13 0H5C2.23858 0 0 2.23858 0 5V13C0 15.7614 2.23858 18 5 18H13C15.7614 18 18 15.7614 18 13V5C18 2.23858 15.7614 0 13 0ZM16.25 13C16.2445 14.7926 14.7926 16.2445 13 16.25H5C3.20735 16.2445 1.75549 14.7926 1.75 13V5C1.75549 3.20735 3.20735 1.75549 5 1.75H13C14.7926 1.75549 16.2445 3.20735 16.25 5V13ZM13.75 5.25C14.3023 5.25 14.75 4.80228 14.75 4.25C14.75 3.69772 14.3023 3.25 13.75 3.25C13.1977 3.25 12.75 3.69772 12.75 4.25C12.75 4.80228 13.1977 5.25 13.75 5.25ZM9 4.50001C6.51472 4.50001 4.5 6.51473 4.5 9.00001C4.5 11.4853 6.51472 13.5 9 13.5C11.4853 13.5 13.5 11.4853 13.5 9.00001C13.5027 7.80572 13.0294 6.65958 12.1849 5.81509C11.3404 4.9706 10.1943 4.49735 9 4.50001ZM6.25 9C6.25 10.5188 7.48122 11.75 9 11.75C10.5188 11.75 11.75 10.5188 11.75 9C11.75 7.48122 10.5188 6.25 9 6.25C7.48122 6.25 6.25 7.48122 6.25 9Z" fill="currentColor"></path>
  </symbol>
  <symbol fill="currentColor" xmlns="http://www.w3.org/2000/svg" viewBox="0 0 22 18" id="mail-icon">
    <path fill-rule="evenodd" clip-rule="evenodd" d="M19.125 0.947266H2.125C0.951395 0.947266 0 1.84859 0 2.96043V15.0394C0 16.1512 0.951395 17.0526 2.125 17.0526H19.125C20.2986 17.0526 21.25 16.1512 21.25 15.0394V2.96043C21.25 1.84859 20.2986 0.947266 19.125 0.947266ZM19.125 2.96045V5.87953L11.3156 11.0634C10.9003 11.3365 10.3497 11.3365 9.93437 11.0634L2.125 5.87953V2.96045H19.125ZM2.125 7.99332V15.0394H19.125V7.99332L12.3781 12.4626C11.3252 13.1598 9.92476 13.1598 8.87187 12.4626L2.125 7.99332Z" fill="currentColor"></path>
  </symbol>
  <symbol fill="currentColor" xmlns="http://www.w3.org/2000/svg" viewBox="0 0 6 10" id="next-arrow-icon">
    <path d="M0.0739384 0.960613C0.0266174 0.913679 0 0.84979 0 0.78314C0 0.716491 0.0266174 0.652602 0.0739384 0.605667L0.603858 0.0757478C0.649218 0.0274165 0.712548 0 0.778831 0C0.845114 0 0.908445 0.0274165 0.953805 0.0757478L5.54811 4.67005C5.61844 4.7403 5.658 4.8356 5.65809 4.93501V5.06499C5.658 5.1644 5.61844 5.2597 5.54811 5.32995L0.953805 9.92425C0.908445 9.97258 0.845114 10 0.778831 10C0.712548 10 0.649218 9.97258 0.603858 9.92425L0.0739384 9.39433C0.0266174 9.3474 0 9.28351 0 9.21686C0 9.15021 0.0266174 9.08632 0.0739384 9.03939L4.11333 5L0.0739384 0.960613Z" fill="currentColor"></path>
  </symbol>
  <symbol fill="currentColor" xmlns="http://www.w3.org/2000/svg" viewBox="0 0 25 23" id="like-icon">
    <path d="M11.3428 22.1291C11.6538 22.44 12.0718 22.6134 12.5102 22.6134C12.9435 22.6134 13.3717 22.4349 13.6776 22.1291L22.8385 12.9682C24.2302 11.5764 24.9949 9.72591 25 7.76323C25 5.79545 24.2353 3.94492 22.8436 2.5532C21.4519 1.16147 19.6064 0.396792 17.6387 0.396792C15.7066 0.396792 13.8866 1.13599 12.5051 2.48183C11.1185 1.13089 9.29343 0.386597 7.35624 0.386597C5.39356 0.386597 3.54812 1.15128 2.1564 2.5379C0.764682 3.92962 0 5.78015 0 7.74794C0 9.71062 0.76978 11.5611 2.1615 12.9529L11.3428 22.1291ZM3.04343 3.42493C4.19555 2.27281 5.73002 1.63558 7.36134 1.63558C8.99266 1.63558 10.5322 2.27281 11.6894 3.43003L12.0667 3.80727C12.1839 3.92453 12.342 3.9908 12.5102 3.9908C12.6733 3.9908 12.8365 3.92453 12.9537 3.80727L13.3208 3.44023C14.478 2.28301 16.0124 1.64577 17.6489 1.64577C19.2802 1.64577 20.8146 2.28301 21.9668 3.43513C23.124 4.59235 23.7561 6.12681 23.7561 7.75813C23.7561 9.38945 23.1189 10.9239 21.9617 12.0811L12.7957 21.2471C12.6478 21.395 12.3777 21.395 12.2247 21.2471L3.04853 12.0709C1.89131 10.9137 1.25408 9.37926 1.25408 7.74794C1.25408 6.11661 1.89131 4.58215 3.04343 3.42493Z" fill="currentColor"></path>
    <path d="M1.10449 7.74792C1.10449 6.07669 1.75757 4.50436 2.9375 3.31921C4.11769 2.13902 5.69015 1.48523 7.36133 1.48523C9.03247 1.48523 10.6106 2.13877 11.7959 3.3241L12.1729 3.70105C12.262 3.79021 12.3817 3.84059 12.5098 3.8407C12.6336 3.8407 12.7589 3.78985 12.8477 3.70105L13.2148 3.33386C14.4 2.14883 15.9724 1.49608 17.6484 1.49597C19.3196 1.49597 20.893 2.14878 22.0732 3.32898C23.2585 4.51431 23.9061 6.08698 23.9062 7.75769C23.9062 9.42897 23.2526 11.0022 22.0674 12.1874L12.9014 21.3534C12.6939 21.5605 12.3301 21.5583 12.1201 21.3553L2.94238 12.1766C1.7573 10.9914 1.10449 9.41909 1.10449 7.74792ZM-0.150391 7.74792C-0.150388 5.74046 0.630868 3.85143 2.05078 2.43152C3.4705 1.0171 5.35402 0.236206 7.35645 0.236206C9.28479 0.236257 11.1037 0.960983 12.5049 2.27625C13.9013 0.965882 15.7155 0.246948 17.6387 0.246948C19.6462 0.246951 21.5294 1.02744 22.9492 2.44714C24.3691 3.86706 25.1504 5.75608 25.1504 7.76355L25.1396 8.13757C25.0444 9.99998 24.2755 11.743 22.9443 13.0741L13.7832 22.2352C13.4494 22.5689 12.9829 22.7635 12.5098 22.7635C12.0316 22.7634 11.5753 22.5742 11.2363 22.2352L2.05566 13.0594L2.26758 12.8466L11.4492 22.0233C11.732 22.3059 12.1116 22.4636 12.5098 22.4637C12.903 22.4637 13.2934 22.301 13.5713 22.0233L22.7324 12.8622C24.0958 11.4988 24.8444 9.68651 24.8496 7.76355L24.8408 7.4032C24.7536 5.61039 24.0156 3.93737 22.7373 2.65906C21.3737 1.29559 19.5665 0.546755 17.6387 0.546753C15.7456 0.546753 13.9628 1.27122 12.6094 2.58972L12.5049 2.48132L12.4004 2.58972C11.0418 1.26605 9.25435 0.53704 7.35645 0.536987C5.43363 0.536987 3.62639 1.28575 2.2627 2.64441C0.89924 4.00792 0.150393 5.81989 0.150391 7.74792C0.150391 9.67054 0.903899 11.4828 2.26758 12.8466L2.05566 13.0594C0.63605 11.6398 -0.150391 9.75057 -0.150391 7.74792ZM12.6094 2.58972L12.5049 2.69128L12.4004 2.58972L12.5049 2.48132L12.6094 2.58972ZM1.4043 7.74792C1.4043 9.33919 2.02523 10.8355 3.1543 11.9647L12.3291 21.1395L12.3682 21.1698C12.4672 21.2301 12.6121 21.2185 12.6895 21.1415L21.8555 11.9755C22.9847 10.8463 23.6064 9.34906 23.6064 7.75769C23.6063 6.16617 22.9892 4.66977 21.8604 3.54089C20.7363 2.41705 19.2397 1.79578 17.6484 1.79578C16.0521 1.79589 14.5558 2.41769 13.4268 3.54675L13.0596 3.91296C12.9139 4.05867 12.7122 4.1405 12.5098 4.1405C12.3017 4.14039 12.1061 4.05811 11.9609 3.91296L11.583 3.53601C10.4539 2.40704 8.95272 1.78601 7.36133 1.78601C5.76987 1.78601 4.27346 2.40708 3.14941 3.53113C2.02532 4.66037 1.4043 6.15669 1.4043 7.74792Z" fill="currentColor"></path>
  </symbol>
  <symbol fill="currentColor" xmlns="http://www.w3.org/2000/svg" viewBox="0 0 30 30" id="plus-icon">
    <path d="M30 13.9286V16.0714C30 16.6632 29.5203 17.1429 28.9286 17.1429H17.1429V28.9286C17.1429 29.5203 16.6632 30 16.0714 30H13.9286C13.3368 30 12.8571 29.5203 12.8571 28.9286V17.1429H1.07143C0.479695 17.1429 0 16.6632 0 16.0714V13.9286C0 13.3368 0.479695 12.8571 1.07143 12.8571H12.8571V1.07143C12.8571 0.479695 13.3368 0 13.9286 0H16.0714C16.6632 0 17.1429 0.479695 17.1429 1.07143V12.8571H28.9286C29.5203 12.8571 30 13.3368 30 13.9286Z" fill="currentColor"></path>
  </symbol>
  <symbol fill="currentColor" xmlns="http://www.w3.org/2000/svg" viewBox="0 0 19 18" id="linkedin-icon">
    <path fill-rule="evenodd" clip-rule="evenodd" d="M0 2.11765C0 0.948106 0.948099 0 2.11764 0C2.67927 0 3.2179 0.223109 3.61504 0.620246C4.01217 1.01738 4.23528 1.55602 4.23528 2.11765C4.23528 3.2872 3.28718 4.23531 2.11764 4.23531C0.948099 4.23531 0 3.2872 0 2.11765ZM18.5294 11.0223C18.5659 8.72986 17.002 6.72097 14.7706 6.19408C13.2753 5.87209 11.7166 6.29432 10.5883 7.32702V6.88232C10.5883 6.58993 10.3512 6.3529 10.0589 6.3529H7.41181C7.11942 6.3529 6.8824 6.58993 6.8824 6.88232V17.4706C6.8824 17.763 7.11942 18 7.41181 18H10.0589C10.3512 18 10.5883 17.763 10.5883 17.4706V11.4988C10.5621 10.4354 11.3032 9.5068 12.3459 9.29644C12.9667 9.18927 13.6031 9.36411 14.082 9.77345C14.5609 10.1828 14.8327 10.7841 14.8235 11.4141V17.4706C14.8235 17.763 15.0606 18 15.353 18H18C18.2924 18 18.5294 17.763 18.5294 17.4706V11.0223ZM4.23526 6.88231V17.4706C4.23526 17.763 3.99824 18 3.70585 18H1.0588C0.766417 18 0.529393 17.763 0.529393 17.4706V6.88231C0.529393 6.58993 0.766417 6.3529 1.0588 6.3529H3.70585C3.99824 6.3529 4.23526 6.58993 4.23526 6.88231Z" fill="currentColor"></path>
  </symbol>
  <symbol fill="currentColor" xmlns="http://www.w3.org/2000/svg" viewBox="0 0 16 14" id="reply-icon">
    <path d="M8 4C13.2 4 16 7.8 16 14C14.5 11.6 13.3 10 8 10V14L0 7L8 0V4Z" fill="currentColor"></path>
  </symbol>
  <symbol fill="currentColor" xmlns="http://www.w3.org/2000/svg" viewBox="0 0 13 16" id="paypal-icon">
    <path fill-rule="evenodd" clip-rule="evenodd" d="M10.9137 3.92184C10.5446 6.2604 8.53789 7.98157 6.18226 7.97995H3.63704C3.34237 7.97667 3.0904 8.19229 3.04661 8.48521L2.44023 12.2867C2.39644 12.5796 2.14447 12.7952 1.8498 12.7919H0.405644C0.286846 12.7964 0.17247 12.7463 0.0948464 12.6558C0.0172233 12.5653 -0.0152129 12.4442 0.00670657 12.3268L1.88171 0.673746C1.94493 0.281523 2.28433 -0.0050462 2.67959 6.73611e-05H8.26472C9.0744 0.00102104 9.8438 0.355162 10.3735 0.970695C10.9032 1.58623 11.141 2.40255 11.0254 3.20806L10.9137 3.92184ZM12.6613 7.12993L12.773 6.41615C12.8756 5.68865 12.6862 4.94998 12.2464 4.36304C11.6783 7.27799 9.13763 9.38147 6.18254 9.38355H4.82615C4.57256 9.38715 4.34877 9.55104 4.26764 9.79257L3.36604 15.5349C3.34445 15.6509 3.3759 15.7706 3.45169 15.8607C3.52748 15.9509 3.63958 16.002 3.757 16H5.20115C5.49639 16.0005 5.74906 15.7872 5.79956 15.4948L6.39797 11.6933C6.44492 11.4022 6.69496 11.1882 6.9884 11.188H7.89797C10.2657 11.2055 12.2904 9.48055 12.6613 7.12993Z" fill="currentColor"></path>
  </symbol>
  <symbol fill="currentColor" xmlns="http://www.w3.org/2000/svg" viewBox="0 0 19 19" id="search-icon">
    <path fill-rule="evenodd" clip-rule="evenodd" d="M14.6431 13.1474L18.8645 17.3747C19.053 17.5844 19.0437 17.9055 18.8434 18.1039L18.1047 18.8437C18.0056 18.9437 17.8707 19 17.73 19C17.5893 19 17.4544 18.9437 17.3553 18.8437L13.1339 14.6164C13.0172 14.4994 12.9112 14.372 12.8173 14.2359L12.0258 13.1791C10.7162 14.2263 9.08984 14.7965 7.41388 14.796C3.96034 14.808 0.959342 12.4224 0.187566 9.0515C-0.584209 5.68058 1.07921 2.22404 4.19304 0.728242C7.30686 -0.767556 11.0401 0.0965967 13.1825 2.8091C15.3249 5.5216 15.3047 9.35852 13.1339 12.0483L14.1893 12.7775C14.3541 12.8831 14.5063 13.0072 14.6431 13.1474ZM2.13727 7.39798C2.13727 10.3163 4.49977 12.6821 7.41405 12.6821C8.81355 12.6821 10.1557 12.1254 11.1453 11.1344C12.1349 10.1435 12.6908 8.79942 12.6908 7.39798C12.6908 4.47963 10.3283 2.11384 7.41405 2.11384C4.49977 2.11384 2.13727 4.47963 2.13727 7.39798Z" fill="currentColor"></path>
  </symbol>
  <symbol fill="currentColor" xmlns="http://www.w3.org/2000/svg" viewBox="0 0 18 18" id="star-empty-icon">
    <path d="M9.00015 0.386475C9.38413 0.386475 9.7294 0.614321 9.88101 0.967529L11.9347 5.77515L17.13 6.24683C17.511 6.2813 17.8348 6.53958 17.9533 6.90405C18.0718 7.26928 17.9618 7.66796 17.674 7.92065L13.7462 11.365L14.9045 16.4656C14.9892 16.8406 14.8436 17.2289 14.5324 17.4539C14.2219 17.6788 13.8083 17.6971 13.4796 17.5007L9.00015 14.821L4.51969 17.5007C4.36836 17.5912 4.19874 17.6354 4.02945 17.6355L3.88199 17.6248C3.73558 17.602 3.59346 17.5451 3.46793 17.4539C3.15676 17.2289 3.01113 16.8406 3.09586 16.4656L4.25406 11.365L0.326327 7.92065C0.0383538 7.66797 -0.0714404 7.26844 0.0470298 6.90405C0.166233 6.54026 0.489315 6.28198 0.870272 6.24683L6.06656 5.77515L8.12027 0.967529C8.27093 0.61435 8.61621 0.386484 9.00015 0.386475ZM6.75211 6.71753L1.05973 7.23315L5.36148 11.0056L4.09293 16.5896L9.00015 13.656L13.9064 16.5906L12.6388 11.0056L16.9396 7.23315L11.2492 6.71753L9.00015 1.4519L6.75211 6.71753Z" fill="currentColor"></path>
  </symbol>
  <symbol fill="currentColor" xmlns="http://www.w3.org/2000/svg" viewBox="0 0 18 18" id="star-icon">
    <path d="M17.9529 6.90409C17.8344 6.53961 17.5111 6.28156 17.1302 6.24709L11.9341 5.77536L9.88059 0.967661C9.72898 0.614445 9.384 0.386475 9.00002 0.386475C8.61605 0.386475 8.27093 0.614445 8.12028 0.967661L6.06676 5.77536L0.869868 6.24709C0.488911 6.28225 0.166319 6.54029 0.0471156 6.90409C-0.0714014 7.26856 0.0380517 7.66833 0.326173 7.92102L4.25399 11.3652L3.09587 16.4659C3.01114 16.841 3.15671 17.2288 3.4679 17.4537C3.63517 17.5753 3.83169 17.636 4.0289 17.636C4.19837 17.636 4.36797 17.5909 4.51945 17.5003L9.00002 14.8212L13.4798 17.5003C13.8084 17.6967 14.2216 17.6787 14.5321 17.4537C14.8433 17.2288 14.9889 16.841 14.9042 16.4659L13.7461 11.3652L17.6739 7.92102C17.9619 7.66833 18.0714 7.26939 17.9529 6.90409Z" fill="currentColor"></path>
  </symbol>
  <symbol fill="currentColor" xmlns="http://www.w3.org/2000/svg" viewBox="0 0 20 17" id="twitter-icon">
    <path d="M19.9708 2.46378C19.4547 3.15213 18.8309 3.75258 18.1235 4.24195C18.1235 4.42177 18.1235 4.60158 18.1235 4.79139C18.1292 8.0568 16.8249 11.1879 14.5029 13.4828C12.181 15.7777 9.03567 17.0443 5.77211 16.9988C3.88538 17.0051 2.02281 16.5743 0.330301 15.7401C0.239042 15.7003 0.18018 15.61 0.180527 15.5103V15.4005C0.180527 15.257 0.296758 15.1407 0.440136 15.1407C2.29475 15.0796 4.0832 14.4366 5.55244 13.3026C3.87376 13.2688 2.36338 12.2744 1.66829 10.7453C1.63318 10.6617 1.64411 10.5659 1.69713 10.4925C1.75016 10.419 1.83761 10.3785 1.9279 10.3856C2.43809 10.4369 2.95337 10.3894 3.44561 10.2458C1.59249 9.86109 0.200074 8.32265 0.000797149 6.43969C-0.00628542 6.34936 0.0341943 6.26187 0.107613 6.20882C0.181031 6.15577 0.276775 6.14483 0.360256 6.17996C0.857554 6.39939 1.39439 6.51496 1.93788 6.51961C0.314106 5.45384 -0.387258 3.42672 0.230452 1.58469C0.294214 1.4057 0.447402 1.27347 0.633723 1.2366C0.820043 1.19972 1.01201 1.26365 1.13908 1.40487C3.33027 3.73695 6.34099 5.12662 9.53645 5.28088C9.4546 4.95427 9.41434 4.61862 9.41663 4.28191C9.44652 2.51636 10.5389 0.943567 12.1825 0.299861C13.826 -0.343846 15.6953 0.0689272 16.9153 1.34494C17.747 1.18651 18.551 0.907164 19.3018 0.515789C19.3568 0.481454 19.4265 0.481454 19.4815 0.515789C19.5158 0.57081 19.5158 0.640583 19.4815 0.695604C19.1178 1.52835 18.5035 2.2268 17.7241 2.69355C18.4066 2.6144 19.0771 2.45341 19.7211 2.21404C19.7754 2.17713 19.8466 2.17713 19.9009 2.21404C19.9463 2.23482 19.9802 2.27457 19.9937 2.32269C20.0072 2.37081 19.9988 2.42242 19.9708 2.46378Z" fill="currentColor"></path>
  </symbol>
  <symbol fill="currentColor" xmlns="http://www.w3.org/2000/svg" viewBox="0 0 20 20" id="user-icon">
    <path fill-rule="evenodd" clip-rule="evenodd" d="M15.0015 5C15.0015 7.76143 12.7623 10 10 10C7.23777 10 4.99851 7.76143 4.99851 5C4.99851 2.23858 7.23777 0 10 0C12.7623 0 15.0015 2.23858 15.0015 5ZM13.001 4.99999C13.001 3.34314 11.6575 1.99999 10.0001 1.99999C8.34275 1.99999 6.99919 3.34314 6.99919 4.99999C6.99919 6.65685 8.34275 7.99999 10.0001 7.99999C11.6575 7.99999 13.001 6.65685 13.001 4.99999ZM19.893 18.55L18.0024 14.76C17.1545 13.0683 15.4239 12.0001 13.5311 12H6.46893C4.57614 12.0001 2.84555 13.0683 1.99758 14.76L0.107007 18.55C-0.0490094 18.8595 -0.0335807 19.2277 0.147782 19.5231C0.329146 19.8185 0.650578 19.999 0.997276 20H19.0027C19.3494 19.999 19.6709 19.8185 19.8522 19.5231C20.0336 19.2277 20.049 18.8595 19.893 18.55ZM3.78818 15.66L2.61782 18H17.3823L16.2119 15.66C15.7046 14.6441 14.667 14.0015 13.5311 14H6.46899C5.33315 14.0015 4.29552 14.6441 3.78818 15.66Z" fill="currentColor"></path>
  </symbol>
</svg>